<svg xmlns="http://www.w3.org/2000/svg" viewBox="0 0 61.74 60"><defs><style>.cls-1{fill:#326de6;}.cls-2{fill:#fff;}</style></defs><title>Asset 3</title><g id="Layer_2" data-name="Layer 2"><g id="Provider_icons" data-name="Provider icons"><path class="cls-1" d="M19.29,60a4.85,4.85,0,0,1-3.82-1.85L1.09,40.27a4.82,4.82,0,0,1-.95-4.19L5.28,13.77a4.86,4.86,0,0,1,2.67-3.33L28.74.49A4.88,4.88,0,0,1,33,.49l20.79,9.9a4.86,4.86,0,0,1,2.67,3.33L61.62,36a5,5,0,0,1-.95,4.19L46.29,58.11A5,5,0,0,1,42.47,60L19.29,60Z"/><path class="cls-2" d="M51.68,34.52h0s-.08,0-.08,0-.16,0-.25,0a5.62,5.62,0,0,0-.78-.08,1.54,1.54,0,0,1-.41,0h0a10.85,10.85,0,0,1-2.22-.37.8.8,0,0,1-.45-.45s0,0,0-.08h0l-.53-.16a16.26,16.26,0,0,0-.29-5.79,16.93,16.93,0,0,0-2.3-5.38l.41-.37v-.08a.93.93,0,0,1,.21-.62,12,12,0,0,1,1.85-1.27h0c.12-.08.25-.12.37-.21a6.19,6.19,0,0,0,.7-.41s.12-.08.21-.16.08,0,.08-.08h0A1.37,1.37,0,0,0,48.35,17a1.17,1.17,0,0,0-.95-.45,1.53,1.53,0,0,0-.9.33h0l-.08.08c-.08,0-.12.12-.21.16a6.82,6.82,0,0,0-.53.58,1.9,1.9,0,0,1-.29.29h0a10.45,10.45,0,0,1-1.64,1.48.66.66,0,0,1-.37.12.52.52,0,0,1-.25,0H43l-.49.33a20,20,0,0,0-1.68-1.56,16.41,16.41,0,0,0-8.59-3.41l0-.53-.08-.08a.86.86,0,0,1-.33-.53,14.42,14.42,0,0,1,.12-2.22v0A1.46,1.46,0,0,1,32,11.1c0-.25.08-.49.12-.78V9.95h0A1.25,1.25,0,0,0,30,9a1.3,1.3,0,0,0-.37.95h0v.33a2.39,2.39,0,0,0,.12.78c0,.12,0,.25.08.41v0a10.62,10.62,0,0,1,.12,2.22.86.86,0,0,1-.33.53l-.08.08h0l0,.53a20.65,20.65,0,0,0-2.22.33,15.84,15.84,0,0,0-8.14,4.6l-.41-.29h-.08c-.08,0-.16,0-.25,0a.66.66,0,0,1-.37-.12,10.9,10.9,0,0,1-1.64-1.52h0a1.9,1.9,0,0,0-.29-.29,6.82,6.82,0,0,0-.53-.58s-.12-.08-.21-.16-.08,0-.08-.08h0a1.44,1.44,0,0,0-.9-.33,1.17,1.17,0,0,0-.95.45,1.37,1.37,0,0,0,.29,1.85h0s0,0,.08,0,.12.12.21.16a6.19,6.19,0,0,0,.7.41,1.67,1.67,0,0,1,.37.21h0a12,12,0,0,1,1.85,1.27.75.75,0,0,1,.21.62v.08h0l.41.37a1.44,1.44,0,0,0-.21.33A16,16,0,0,0,15,33.12l-.53.16s0,0,0,.08a1,1,0,0,1-.45.45,10.38,10.38,0,0,1-2.22.37h0a1.4,1.4,0,0,0-.41,0,5.62,5.62,0,0,0-.78.08c-.08,0-.16,0-.25,0a.15.15,0,0,0-.12,0h0A1.35,1.35,0,0,0,9.1,35.92a1.27,1.27,0,0,0,1.32.95.9.9,0,0,0,.33,0h0s.08,0,.08,0,.16,0,.25,0a4,4,0,0,0,.74-.29c.12,0,.25-.12.37-.16h0a10.1,10.1,0,0,1,2.14-.62h.08a.91.91,0,0,1,.53.21s0,0,.08,0h0l.58-.08A16.25,16.25,0,0,0,21,43.56a16.64,16.64,0,0,0,1.77,1.19l-.25.53s0,0,0,.08a.84.84,0,0,1,.08.66A11.59,11.59,0,0,1,21.59,48v0c-.08.12-.16.21-.25.33s-.29.41-.45.66a.9.9,0,0,0-.12.21.14.14,0,0,1,0,.08h0A1.3,1.3,0,0,0,21.26,51a1.09,1.09,0,0,0,.49.12A1.48,1.48,0,0,0,23,50.38h0a.14.14,0,0,1,0-.08.9.9,0,0,1,.12-.21,7.78,7.78,0,0,0,.25-.74l.12-.37h0a9.66,9.66,0,0,1,.86-2.05,1.06,1.06,0,0,1,.53-.37s0,0,.08,0h0l.29-.53A16.06,16.06,0,0,0,31,47.05a14.92,14.92,0,0,0,3.58-.41A18.26,18.26,0,0,0,36.76,46l.25.45s0,0,.08,0a.76.76,0,0,1,.53.37,14.07,14.07,0,0,1,.86,2.05v0l.12.37a5.2,5.2,0,0,0,.25.74c0,.08.08.12.12.21a.14.14,0,0,0,0,.08h0a1.4,1.4,0,0,0,1.23.78,1.09,1.09,0,0,0,.49-.12,1.22,1.22,0,0,0,.62-.74,1.49,1.49,0,0,0-.08-1h0s0,0,0-.08a.9.9,0,0,0-.12-.21,3.72,3.72,0,0,0-.45-.66c-.08-.12-.16-.21-.25-.33v0A9.22,9.22,0,0,1,39.35,46a1.15,1.15,0,0,1,0-.66s0,0,0-.08h0l-.21-.49a16.3,16.3,0,0,0,7.15-9l.49.08s0,0,.08,0a1,1,0,0,1,.53-.21h.08a10.1,10.1,0,0,1,2.14.62h0c.12,0,.25.12.37.16a4,4,0,0,0,.74.29c.08,0,.16,0,.25,0a.15.15,0,0,1,.12,0h0a.9.9,0,0,0,.33,0,1.38,1.38,0,0,0,1.32-.95,1.58,1.58,0,0,0-1.19-1.36Zm-19-2-1.81.86L29,32.51l-.45-1.93L29.81,29h2l1.23,1.56-.41,1.93Zm10.73-4.27a13,13,0,0,1,.29,4.15l-6.29-1.81a1.11,1.11,0,0,1-.78-1.32,1,1,0,0,1,.25-.45l5-4.48a13.17,13.17,0,0,1,1.56,3.9Zm-3.53-6.37-5.38,3.82A1.09,1.09,0,0,1,33,25.44a.91.91,0,0,1-.21-.45l-.37-6.7a12.47,12.47,0,0,1,7.4,3.58ZM27.92,18.49l1.32-.25-.37,6.58a1.12,1.12,0,0,1-1.11,1.07,1,1,0,0,1-.49-.12l-5.47-3.9a12.54,12.54,0,0,1,6.12-3.37Zm-8.1,5.84,4.89,4.36a1.09,1.09,0,0,1,.12,1.52.82.82,0,0,1-.49.33L18,32.38a13.23,13.23,0,0,1,1.85-8.05ZM18.72,35.47l6.53-1.11a1.11,1.11,0,0,1,1.15.86,1.17,1.17,0,0,1,0,.66h0l-2.51,6a13,13,0,0,1-5.14-6.45Zm15,8.18a13.42,13.42,0,0,1-2.88.33,13.92,13.92,0,0,1-4.15-.66l3.25-5.88a1.08,1.08,0,0,1,1.32-.29,1.75,1.75,0,0,1,.49.45h0l3.16,5.71c-.37.12-.78.21-1.19.33Zm8-5.71a13,13,0,0,1-3.95,4L35.2,35.71a1.11,1.11,0,0,1,.58-1.27,1.31,1.31,0,0,1,.58-.12l6.58,1.11a8.27,8.27,0,0,1-1.19,2.51Z"/></g></g></svg>